Coordinates
version=1
nRows=8
nColumns=34
inDegrees=yes

Units are S.I. units (second, meters, Newtons, ...)
If the header above contains a line with 'inDegrees', this indicates whether rotational values are in degrees (yes) or radians (no).

endheader
time	pelvis_tilt	pelvis_list	pelvis_rotation	pelvis_tx	pelvis_ty	pelvis_tz	hip_flexion_r	hip_adduction_r	hip_rotation_r	knee_angle_r	ankle_angle_r	subtalar_angle_r	mtp_angle_r	hip_flexion_l	hip_adduction_l	hip_rotation_l	knee_angle_l	ankle_angle_l	subtalar_angle_l	mtp_angle_l	lumbar_extension	lumbar_bending	lumbar_rotation	arm_flex_r	arm_add_r	arm_rot_r	elbow_flex_r	pro_sup_r	arm_flex_l	arm_add_l	arm_rot_l	elbow_flex_l	pro_sup_l
     10.10000000	    -13.24925362	     -4.06342984	     -1.95495271	      1.44580229	      0.96123147	      0.02975335	      3.33588192	     -3.29927572	     -3.10830382	      3.01801310	      6.69709475	      2.62921057	      0.00000000	     15.02872460	     -2.14796745	    -21.05187419	      0.00000000	      6.57496772	      9.12455993	      0.00000000	     -2.94286578	     -1.82352503	     -4.06893176	     -0.91292975	     -5.05941539	     -6.41594368	     32.06714832	     72.42740117	     -6.79407800	    -16.22501681	    -18.34504193	     28.01133669	     79.61388561
     10.11666670	    -13.38096076	     -4.47601612	     -1.68768617	      1.45311808	      0.95850394	      0.02632469	      3.58649769	     -3.02343239	     -2.78109504	      3.22687777	      6.80713604	      2.48316044	      0.00000000	     14.64651379	     -2.19589624	    -20.70958097	      0.00000000	      7.59846410	      9.64797158	      0.00000000	     -2.70171371	     -1.49857294	     -4.41409159	     -1.27782669	     -4.98791306	     -6.68453049	     31.68394819	     72.43326883	     -6.10846024	    -16.46652056	    -18.52508871	     28.49080891	     79.93327545
     10.13333330	    -13.55236770	     -4.90404689	     -1.50986845	      1.45966548	      0.95565361	      0.02397249	      3.91930440	     -2.65291518	     -2.23537266	      3.25534368	      6.49302396	      1.77685360	      0.00000000	     14.32577555	     -2.35597919	    -21.24232919	      0.00000000	      8.75016347	     11.23877015	      0.00000000	     -2.30189342	     -1.25171334	     -4.40628825	     -1.54960078	     -4.69470014	     -7.70942962	     30.64553813	     72.43143645	     -5.28358120	    -16.82374588	    -18.97580176	     29.53304563	     81.04692731
     10.15000000	    -13.62163132	     -5.37369416	     -1.30986190	      1.46588232	      0.95608378	      0.02124697	      4.30280136	     -2.20586287	     -1.85662039	      3.31189275	      6.62049525	      1.80316216	      0.00000000	     13.95761108	     -2.60611781	    -21.11291523	      0.00000000	      9.22585544	     11.36846956	      0.00000000	     -2.15602530	     -0.88435858	     -4.92023418	     -1.65963114	     -4.51698419	     -7.77930063	     30.50477802	     72.43959431	     -4.53095018	    -17.30596276	    -19.06441352	     29.87652301	     81.17657576
     10.16666670	    -13.64868449	     -5.71675607	     -1.08789714	      1.47299326	      0.95998639	      0.01762455	      4.64022572	     -1.83291610	     -1.14211090	      3.10735213	      6.28611139	      0.87982464	      0.00000000	     13.54695126	     -2.77603856	    -21.67009760	      0.00000000	     10.02288403	     12.72152861	      0.00000000	     -1.80483402	     -0.61775900	     -5.22572368	     -1.49746275	     -4.01899393	     -9.80253365	     28.96762969	     72.65561172	     -3.82209288	    -17.67408128	    -19.19602865	     30.94856333	     84.21802506
     10.18333330	    -13.71296078	     -5.91757843	     -0.71705602	      1.48082892	      0.96481631	      0.01369101	      4.89098035	     -1.63130533	     -1.01495917	      2.51620546	      6.04783891	      1.13962324	      0.00000000	     13.21926557	     -2.78567023	    -21.49917867	      0.00000000	      9.78754630	     12.88515758	      0.00000000	     -1.36090184	     -0.53265082	     -5.55641597	     -1.79397550	     -3.90502646	     -9.83298688	     28.67619997	     72.71617033	     -2.79335720	    -18.03486489	    -19.22701336	     31.51460823	     84.44900291
     10.20000000	    -13.66538621	     -6.02777779	     -0.53173612	      1.48824042	      0.96762037	      0.01082916	      5.28999552	     -1.50884191	     -0.84141073	      2.30876548	      5.95813552	      1.26971883	      0.00000000	     12.75026448	     -2.74348808	    -21.64781290	      0.00000000	      9.74692429	     12.84537981	      0.00000000	     -1.03964005	     -0.41817258	     -6.09025173	     -1.85316305	     -3.78438588	     -9.83741071	     28.61116555	     72.72308596	     -2.01657287	    -18.37216371	    -19.23840991	     31.85631907	     84.48652146
     10.21666670	    -13.56759259	     -6.22478811	     -0.03849185	      1.49488321	      0.96755040	      0.00843718	      5.40251910	     -1.26464267	     -1.30405333	      1.56847190	      5.38429427	      1.31123459	      0.00000000	     12.30693415	     -2.76851774	    -21.48844245	      0.00000000	      9.19951736	     13.24829270	      0.00000000	     -0.84833936	     -0.45729692	     -6.19345109	     -2.10735469	     -3.57492887	    -10.07848144	     27.81595743	     72.73913104	     -0.71605563	    -18.73222435	    -18.91241027	     33.03349644	     84.81207479
